<svg xmlns:xlink="http://www.w3.org/1999/xlink" xmlns="http://www.w3.org/2000/svg" height="265.74310128341455" width="234.375" style="width: 234.375px; height: 265.743px; position: absolute; top: 50%; left: 50%; transform: translate(-50%, -50%) scale(1); z-index: 0; cursor: pointer;"><defs id="SvgjsDefs1001"></defs><g id="SvgjsG1007" featurekey="rootContainer" transform="matrix(4.725301111045653,0,0,4.725301111045653,0.0000347689931040783,0.019721259814305742)" fill="#111111"><path xmlns="http://www.w3.org/2000/svg" d="M23.11 55.78L1.69 43.41A3.39 3.39 0 0 1 0 40.48V15.75a3.39 3.39 0 0 1 1.69-2.94L23.11.45a3.39 3.39 0 0 1 3.39 0l21.41 12.37a3.39 3.39 0 0 1 1.69 2.94v24.72a3.39 3.39 0 0 1-1.69 2.94L26.5 55.78a3.39 3.39 0 0 1-3.39 0z" fill="#111111"></path></g><g id="SvgjsG1008" featurekey="nameFeature-0" transform="matrix(1.4798737085315388,0,0,1.4798737085315388,39.09944676916671,93.70875441403676)" fill="#FFFFFF"><path d="M30.76 40.2 c-0.04 -4.28 -1.64 -19.44 -1.76 -20.52 c-2.88 5.2 -5.64 10.44 -8.28 15.76 c-1.24 2.52 -1.6 3.52 -2.08 4.76 c-0.2 -0.04 -0.4 -0.08 -0.56 -0.08 s-0.32 0.04 -0.52 0.08 c-0.72 -1.64 -1.16 -2.64 -1.88 -4.04 c-2.8 -5.4 -6 -11.52 -8.64 -16.12 c-0.96 6 -1.68 16.56 -1.64 20.16 c-0.64 -0.16 -1 -0.24 -1.52 -0.24 c-0.8 0 -1.52 0.16 -1.92 0.24 c0.4 -1.88 3.2 -19.08 4.12 -27.84 c0.2 0.04 0.44 0.08 0.68 0.08 c0.2 0 0.52 -0.04 0.8 -0.08 c1.16 2.64 9 17.44 11.56 21.56 c6.44 -11.96 7.16 -13.28 9.52 -17.76 c0.96 -1.88 1.16 -2.28 1.84 -3.8 c0.28 0.04 0.48 0.08 0.72 0.08 c0.2 0 0.44 -0.04 0.76 -0.08 c0.92 8.44 2.24 20.32 3.28 26.76 c0.04 0.28 0.08 0.56 0.24 1.08 c-1.08 -0.16 -1.52 -0.24 -2.24 -0.24 c-1.16 0 -1.8 0.12 -2.48 0.24 z M68.56 40.2 c-0.04 -4.28 -1.64 -19.44 -1.76 -20.52 c-2.88 5.2 -5.64 10.44 -8.28 15.76 c-1.24 2.52 -1.6 3.52 -2.08 4.76 c-0.2 -0.04 -0.4 -0.08 -0.56 -0.08 s-0.32 0.04 -0.52 0.08 c-0.72 -1.64 -1.16 -2.64 -1.88 -4.04 c-2.8 -5.4 -6 -11.52 -8.64 -16.12 c-0.96 6 -1.68 16.56 -1.64 20.16 c-0.64 -0.16 -1 -0.24 -1.52 -0.24 c-0.8 0 -1.52 0.16 -1.92 0.24 c0.4 -1.88 3.2 -19.08 4.12 -27.84 c0.2 0.04 0.44 0.08 0.68 0.08 c0.2 0 0.52 -0.04 0.8 -0.08 c1.16 2.64 9 17.44 11.56 21.56 c6.44 -11.96 7.16 -13.28 9.52 -17.76 c0.96 -1.88 1.16 -2.28 1.84 -3.8 c0.28 0.04 0.48 0.08 0.72 0.08 c0.2 0 0.44 -0.04 0.76 -0.08 c0.92 8.44 2.24 20.32 3.28 26.76 c0.04 0.28 0.08 0.56 0.24 1.08 c-1.08 -0.16 -1.52 -0.24 -2.24 -0.24 c-1.16 0 -1.8 0.12 -2.48 0.24 z M79.52000000000001 29.08 c0 -10.76 0 -11.56 -0.32 -16.56 c0.84 0.12 1.64 0.24 2.36 0.24 c0.88 0 1.64 -0.12 2.32 -0.24 c-0.36 5.24 -0.36 12.84 -0.36 13.68 c0 5.04 0.16 7.84 1.76 9.8 c1.28 1.6 3.88 2.6 6.4 2.6 c1.12 0 6.56 -0.24 7.88 -5.84 c0.64 -2.72 0.68 -7.24 0.68 -8.24 c0 -1.52 -0.16 -9.4 -0.56 -12 c0.52 0.12 0.96 0.24 1.88 0.24 c0.88 0 1.28 -0.12 1.76 -0.24 c-0.52 3.64 -0.68 8.2 -0.68 14.12 c0 3.88 -0.2 8.2 -2.88 10.96 c-1.68 1.76 -4.24 3.16 -8.8 3.16 c-3.08 0 -7.28 -0.72 -9.76 -4.04 c-1.48 -2 -1.68 -4.2 -1.68 -7.64 z" fill="#FFFFFF"></path></g></svg>